<?xml version="1.0" standalone="no"?>
<!DOCTYPE svg PUBLIC "-//W3C//DTD SVG 20010904//EN"
 "http://www.w3.org/TR/2001/REC-SVG-20010904/DTD/svg10.dtd">
<svg version="1.0" xmlns="http://www.w3.org/2000/svg"
 width="1024.000000pt" height="696.000000pt" viewBox="0 0 1024.000000 696.000000"
 preserveAspectRatio="xMidYMid meet">
<metadata>
Created by potrace 1.16, written by Peter Selinger 2001-2019
</metadata>
<g transform="translate(0.000000,696.000000) scale(0.100000,-0.100000)"
fill="#000000" stroke="none">
<path fill= "#3386bd" d="M6305 6949 c-416 -50 -712 -127 -1065 -276 -289 -122 -457 -232 -476
-309 -9 -37 12 -85 200 -459 180 -357 250 -483 302 -544 29 -33 36 -36 79 -34
49 2 57 6 305 158 246 151 472 239 752 292 133 25 543 25 676 0 269 -51 532
-152 737 -282 207 -132 424 -332 545 -504 36 -51 85 -120 109 -154 25 -34 71
-102 104 -151 80 -119 122 -164 165 -176 58 -16 679 -23 965 -11 235 9 262 12
293 32 30 18 34 25 34 64 0 57 -22 114 -118 310 -87 175 -215 391 -330 554
-222 313 -545 653 -778 817 -23 16 -83 61 -135 100 -141 106 -173 126 -304
191 -386 194 -833 324 -1290 378 -143 16 -644 19 -770 4z"/>
<path d="M3270 6863 c-31 -38 -460 -892 -460 -917 0 -2 -144 -300 -321 -662
-176 -363 -332 -684 -346 -714 -32 -68 -324 -669 -503 -1035 -73 -148 -161
-331 -195 -405 -58 -124 -112 -237 -362 -750 -279 -572 -323 -662 -323 -665 0
-9 -119 -259 -335 -700 -167 -343 -318 -659 -371 -780 -40 -90 -48 -121 -49
-170 l0 -60 2067 -3 c2057 -2 2068 -2 2088 18 35 35 28 69 -47 230 -14 30 -49
107 -78 170 -170 372 -330 680 -386 743 l-35 41 -195 7 c-107 4 -468 8 -804 9
-564 1 -704 6 -721 23 -4 3 3 30 15 58 121 280 1362 2784 1399 2821 6 6 16 7
28 0 24 -13 268 -491 1237 -2422 751 -1499 796 -1586 844 -1663 l24 -39 602 4
c610 4 647 6 669 41 11 16 0 61 -30 127 -105 232 -362 761 -854 1760 -632
1281 -774 1571 -938 1905 -1272 2602 -1459 2975 -1518 3038 -36 37 -64 35
-102 -10z"/>
<path fill= "#3386bd" d="M6892 3421 c-696 -6 -671 -4 -672 -52 0 -34 43 -155 99 -278 162
-351 414 -861 446 -899 58 -69 12 -65 830 -73 778 -8 1033 -13 1041 -22 11
-11 -61 -126 -126 -201 -90 -105 -312 -321 -396 -386 -11 -8 -40 -31 -64 -51
-73 -58 -245 -161 -429 -258 -182 -95 -251 -142 -251 -169 0 -32 42 -128 160
-367 110 -223 141 -281 245 -470 66 -120 113 -184 142 -191 57 -15 186 36 472
186 315 165 615 407 955 769 406 434 651 897 801 1511 9 36 18 72 20 80 7 24
23 93 29 120 2 14 12 54 22 90 13 50 18 123 21 326 l5 261 -24 27 c-21 25 -34
29 -103 37 -104 11 -2381 18 -3223 10z"/>
</g>
</svg>
