<?xml version="1.0" encoding="UTF-8"?>
<!DOCTYPE svg PUBLIC "-//W3C//DTD SVG 1.1//EN" "http://www.w3.org/Graphics/SVG/1.1/DTD/svg11.dtd">
<!-- Creator: CorelDRAW X6 -->
<svg xmlns="http://www.w3.org/2000/svg" xml:space="preserve" width="34.7025mm" height="8.3302mm" version="1.1" style="shape-rendering:geometricPrecision; text-rendering:geometricPrecision; image-rendering:optimizeQuality; fill-rule:evenodd; clip-rule:evenodd"
viewBox="0 0 3451 828"
 xmlns:xlink="http://www.w3.org/1999/xlink">
 <defs>
  <style type="text/css">
   <![CDATA[
    .str0 {stroke:#2B2A29;stroke-width:26.3134}
    .fil2 {fill:#2B2A29;fill-rule:nonzero}
    .fil0 {fill:#04516B;fill-rule:nonzero}
    .fil1 {fill:#2B2A29;fill-rule:nonzero}
   ]]>
  </style>
 </defs>
 <g id="Layer_x0020_1">
  <metadata id="CorelCorpID_0Corel-Layer"/>
  <g id="_413671304">
   <path class="fil0" d="M504 745l17 -1c1,7 3,12 6,17 3,4 8,8 14,11 6,3 13,4 21,4 7,0 13,-1 18,-3 5,-2 9,-5 12,-9 2,-3 4,-8 4,-12 0,-4 -1,-8 -4,-11 -2,-3 -7,-6 -12,-8 -4,-1 -12,-3 -24,-7 -12,-3 -21,-6 -26,-9 -7,-3 -11,-8 -14,-13 -3,-5 -5,-11 -5,-17 0,-7 2,-13 6,-19 4,-6 10,-10 17,-13 8,-3 16,-4 25,-4 10,0 19,2 27,5 8,3 13,8 18,14 4,6 6,13 7,21l-17 1c-1,-9 -4,-15 -9,-19 -6,-4 -13,-7 -24,-7 -11,0 -19,2 -24,6 -5,4 -8,9 -8,14 0,5 2,9 5,12 3,3 12,7 27,10 14,3 25,6 30,9 8,4 14,8 18,14 4,6 6,12 6,19 0,7 -2,14 -6,20 -4,7 -10,11 -18,15 -8,3 -17,5 -26,5 -12,0 -22,-2 -31,-6 -8,-3 -15,-9 -20,-16 -5,-7 -7,-15 -8,-25l1 0z"/>
   <path id="_1" class="fil0" d="M676 671l0 -19 17 0 0 19 -17 0zm0 117l0 -99 17 0 0 99 -17 0z"/>
   <path id="_2" class="fil0" d="M761 788l0 -99 15 0 0 14c7,-11 18,-16 31,-16 6,0 11,1 16,3 5,2 9,5 11,8 2,3 4,8 5,12 1,3 1,9 1,16l0 60 -17 0 0 -60c0,-7 -1,-12 -2,-15 -1,-3 -3,-6 -7,-8 -3,-2 -7,-3 -12,-3 -7,0 -13,2 -18,7 -5,4 -8,13 -8,26l0 54 -17 0 0 0z"/>
   <path id="_3" class="fil0" d="M905 796l16 2c1,5 2,9 6,11 4,3 10,4 17,4 8,0 14,-1 18,-4 4,-3 7,-7 9,-13 1,-3 1,-10 1,-21 -7,9 -17,13 -27,13 -13,0 -24,-5 -31,-14 -8,-10 -11,-21 -11,-35 0,-9 2,-18 5,-26 3,-8 8,-14 15,-18 7,-4 14,-7 23,-7 12,0 21,5 29,14l0 -12 16 0 0 85c0,16 -1,26 -5,33 -3,7 -8,11 -15,15 -7,4 -15,6 -25,6 -12,0 -21,-3 -28,-8 -7,-5 -11,-13 -10,-24l0 0zm14 -59c0,13 2,22 8,28 5,6 12,9 19,9 8,0 14,-3 19,-9 5,-6 8,-15 8,-28 0,-12 -3,-21 -8,-27 -6,-6 -12,-9 -19,-9 -8,0 -14,3 -19,9 -5,6 -8,15 -8,27l0 0z"/>
   <polygon id="_4" class="fil0" points="1055,788 1055,652 1072,652 1072,788 "/>
   <path id="_5" class="fil0" d="M1207 756l17 2c-3,10 -8,18 -15,23 -7,6 -17,8 -28,8 -14,0 -26,-4 -34,-13 -8,-9 -13,-21 -13,-37 0,-17 4,-29 13,-39 9,-9 20,-14 33,-14 13,0 24,4 32,13 8,9 12,21 12,38 0,1 0,2 0,4l-74 0c1,11 4,19 9,25 6,6 12,9 21,9 6,0 11,-2 16,-5 4,-3 8,-8 10,-16l0 0zm-55 -27l55 0c-1,-8 -3,-14 -6,-19 -5,-7 -12,-10 -21,-10 -8,0 -14,2 -19,8 -5,5 -8,12 -9,21z"/>
   <path id="_6" class="fil0" d="M1439 740l18 4c-4,15 -11,26 -20,34 -10,8 -22,12 -36,12 -14,0 -27,-3 -36,-9 -9,-6 -16,-14 -21,-26 -5,-11 -7,-23 -7,-37 0,-14 3,-27 8,-37 6,-11 13,-19 23,-24 10,-6 21,-8 33,-8 13,0 25,3 34,10 9,7 16,17 19,29l-18 4c-3,-10 -8,-17 -14,-22 -6,-4 -13,-7 -23,-7 -10,0 -19,2 -26,8 -7,5 -12,12 -15,20 -3,9 -4,17 -4,26 0,11 2,22 5,30 3,9 9,15 16,19 7,4 15,7 23,7 10,0 19,-3 26,-9 7,-6 12,-14 14,-26l1 0z"/>
   <polygon id="_7" class="fil0" points="1519,788 1519,652 1535,652 1535,788 "/>
   <path id="_8" class="fil0" d="M1603 671l0 -19 17 0 0 19 -17 0zm0 117l0 -99 17 0 0 99 -17 0z"/>
   <path id="_9" class="fil0" d="M1751 752l16 2c-2,11 -6,20 -14,26 -7,6 -17,10 -27,10 -13,0 -24,-4 -32,-13 -8,-9 -12,-21 -12,-38 0,-11 2,-20 5,-28 3,-8 9,-14 16,-18 7,-4 15,-6 23,-6 11,0 19,3 26,8 7,6 11,13 13,23l-16 2c-1,-7 -4,-12 -8,-15 -4,-3 -9,-5 -14,-5 -8,0 -15,3 -21,9 -5,6 -8,16 -8,29 0,13 2,23 8,29 5,6 12,9 20,9 7,0 12,-2 17,-6 4,-4 7,-10 8,-19l0 0z"/>
   <polygon id="_10" class="fil0" points="1824,788 1824,652 1841,652 1841,730 1880,690 1902,690 1864,726 1906,788 1885,788 1852,738 1841,749 1841,788 "/>
   <path id="_11" class="fil0" d="M2010 745l17 -1c1,7 3,12 6,17 3,4 8,8 14,11 6,3 13,4 21,4 7,0 13,-1 18,-3 5,-2 9,-5 12,-9 2,-3 4,-8 4,-12 0,-4 -1,-8 -4,-11 -2,-3 -7,-6 -12,-8 -4,-1 -12,-3 -24,-7 -12,-3 -21,-6 -26,-9 -7,-3 -11,-8 -14,-13 -3,-5 -5,-11 -5,-17 0,-7 2,-13 6,-19 4,-6 10,-10 17,-13 8,-3 16,-4 25,-4 10,0 19,2 27,5 8,3 13,8 18,14 4,6 6,13 7,21l-17 1c-1,-9 -4,-15 -9,-19 -6,-4 -13,-7 -24,-7 -11,0 -19,2 -24,6 -5,4 -8,9 -8,14 0,5 2,9 5,12 3,3 12,7 27,10 14,3 25,6 30,9 8,4 14,8 18,14 4,6 6,12 6,19 0,7 -2,14 -6,20 -4,7 -10,11 -18,15 -8,3 -17,5 -26,5 -12,0 -22,-2 -31,-6 -8,-3 -15,-9 -20,-16 -5,-7 -7,-15 -8,-25l1 0z"/>
   <path id="_12" class="fil0" d="M2176 739c0,-18 5,-32 15,-40 9,-7 19,-11 31,-11 13,0 25,4 33,13 9,9 13,21 13,37 0,13 -2,23 -6,30 -4,7 -9,13 -17,17 -7,4 -15,6 -24,6 -14,0 -25,-4 -33,-13 -9,-9 -13,-21 -13,-38l0 0zm17 0c0,13 3,22 8,28 6,6 12,9 21,9 8,0 15,-3 21,-9 6,-6 8,-16 8,-29 0,-12 -3,-21 -8,-28 -6,-6 -12,-9 -21,-9 -8,0 -15,3 -21,9 -6,6 -8,16 -8,28l0 0z"/>
   <polygon id="_13" class="fil0" points="2329,788 2329,652 2346,652 2346,788 "/>
   <path id="_14" class="fil0" d="M2478 788l0 -14c-8,11 -18,17 -31,17 -6,0 -11,-1 -16,-3 -5,-2 -9,-5 -11,-8 -2,-3 -4,-8 -5,-12 -1,-3 -1,-9 -1,-16l0 -61 17 0 0 55c0,9 0,14 1,18 1,4 3,8 7,10 3,2 8,4 12,4 5,0 10,-1 14,-4 4,-2 8,-6 9,-10 2,-4 3,-11 3,-19l0 -53 17 0 0 99 -15 0 0 0z"/>
   <path id="_15" class="fil0" d="M2598 773l2 15c-5,1 -9,1 -12,1 -6,0 -11,-1 -14,-3 -3,-2 -6,-4 -7,-8 -1,-3 -2,-10 -2,-20l0 -57 -12 0 0 -13 12 0 0 -25 17 -10 0 35 17 0 0 13 -17 0 0 58c0,5 0,8 1,9 1,1 1,2 3,3 1,1 3,1 6,1 2,0 4,0 7,-1l0 0z"/>
   <path id="_16" class="fil0" d="M2656 671l0 -19 17 0 0 19 -17 0zm0 117l0 -99 17 0 0 99 -17 0z"/>
   <path id="_17" class="fil0" d="M2734 739c0,-18 5,-32 15,-40 9,-7 19,-11 31,-11 13,0 25,4 33,13 9,9 13,21 13,37 0,13 -2,23 -6,30 -4,7 -9,13 -17,17 -7,4 -15,6 -24,6 -14,0 -25,-4 -33,-13 -9,-9 -13,-21 -13,-38l0 0zm17 0c0,13 3,22 8,28 6,6 12,9 21,9 8,0 15,-3 21,-9 6,-6 8,-16 8,-29 0,-12 -3,-21 -8,-28 -6,-6 -12,-9 -21,-9 -8,0 -15,3 -21,9 -6,6 -8,16 -8,28l0 0z"/>
   <path id="_18" class="fil0" d="M2888 788l0 -99 15 0 0 14c7,-11 18,-16 31,-16 6,0 11,1 16,3 5,2 9,5 11,8 2,3 4,8 5,12 1,3 1,9 1,16l0 60 -17 0 0 -60c0,-7 -1,-12 -2,-15 -1,-3 -3,-6 -7,-8 -3,-2 -7,-3 -12,-3 -7,0 -13,2 -18,7 -5,4 -8,13 -8,26l0 54 -17 0 0 0z"/>
  </g>
  <path class="fil1" d="M1201 285c-53,-15 -91,-34 -115,-56 -24,-22 -36,-50 -36,-82 0,-37 15,-67 44,-91 29,-24 68,-36 115,-36 32,0 61,6 86,19 25,13 45,30 58,51 14,22 21,46 21,71l-62 0c0,-28 -9,-51 -27,-67 -18,-16 -43,-24 -76,-24 -30,0 -54,7 -71,20 -17,13 -26,32 -26,56 0,19 8,35 24,48 16,13 44,25 83,36 39,11 69,23 91,36 22,13 38,29 49,46 11,18 16,38 16,62 0,38 -15,68 -44,91 -29,23 -69,34 -119,34 -32,0 -62,-6 -90,-18 -28,-13 -49,-29 -64,-51 -15,-21 -22,-46 -22,-73l62 0c0,28 10,50 31,67 21,16 49,25 84,25 33,0 57,-7 75,-20 17,-13 26,-31 26,-54 0,-23 -8,-41 -24,-53 -16,-13 -45,-25 -88,-37l0 0z"/>
  <path id="_1_0" class="fil1" d="M1395 317c0,-34 7,-65 20,-92 13,-27 32,-48 56,-63 24,-15 51,-22 82,-22 47,0 86,16 115,49 29,33 44,76 44,131l0 4c0,34 -6,64 -20,91 -13,27 -31,48 -55,63 -24,15 -52,22 -83,22 -47,0 -85,-16 -114,-49 -29,-33 -44,-76 -44,-130l0 -4 0 0zm60 7c0,38 9,70 27,93 18,23 42,35 72,35 30,0 54,-12 72,-36 18,-24 27,-57 27,-99 0,-38 -9,-69 -27,-93 -18,-24 -42,-36 -72,-36 -29,0 -53,12 -71,35 -18,23 -27,57 -27,100l0 0z"/>
  <polygon id="_2_1" class="fil1" points="1818,493 1758,493 1758,0 1818,0 "/>
  <path id="_3_2" class="fil1" d="M2094 459c-23,27 -57,41 -102,41 -37,0 -65,-11 -85,-32 -20,-21 -29,-54 -30,-96l0 -226 59 0 0 224c0,53 21,79 64,79 46,0 76,-17 91,-51l0 -253 59 0 0 348 -56 0 -1 -34z"/>
  <path id="_4_3" class="fil1" d="M2290 62l0 84 65 0 0 46 -65 0 0 215c0,14 3,24 9,31 6,7 16,10 30,10 7,0 16,-1 28,-4l0 48c-16,4 -31,6 -46,6 -27,0 -46,-8 -60,-24 -13,-16 -20,-39 -20,-68l0 -215 -63 0 0 -46 63 0 0 -84 59 0 0 0z"/>
  <path id="_5_4" class="fil1" d="M2455 493l-59 0 0 -348 59 0 0 348zm-64 -440c0,-10 3,-18 9,-25 6,-7 15,-10 26,-10 12,0 21,3 26,10 6,7 9,15 9,25 0,10 -3,18 -9,24 -6,6 -15,10 -26,10 -12,0 -20,-3 -26,-10 -6,-6 -9,-14 -9,-24z"/>
  <path id="_6_5" class="fil1" d="M2501 317c0,-34 7,-65 20,-92 13,-27 32,-48 56,-63 24,-15 51,-22 82,-22 47,0 86,16 115,49 29,33 44,76 44,131l0 4c0,34 -6,64 -20,91 -13,27 -31,48 -55,63 -24,15 -52,22 -83,22 -47,0 -85,-16 -114,-49 -29,-33 -44,-76 -44,-130l0 -4 0 0zm60 7c0,38 9,70 27,93 18,23 42,35 72,35 30,0 54,-12 72,-36 18,-24 27,-57 27,-99 0,-38 -9,-69 -27,-93 -18,-24 -42,-36 -72,-36 -29,0 -53,12 -71,35 -18,23 -27,57 -27,100l0 0z"/>
  <path id="_7_6" class="fil1" d="M2915 146l2 44c27,-33 61,-50 104,-50 73,0 111,41 111,124l0 230 -59 0 0 -230c0,-25 -6,-44 -17,-55 -11,-12 -29,-18 -53,-18 -19,0 -36,5 -51,15 -14,10 -26,24 -34,40l0 248 -59 0 0 -348 56 0 0 0z"/>
  <path id="_8_7" class="fil1" d="M3391 401c0,-16 -6,-29 -18,-37 -12,-9 -33,-17 -63,-23 -30,-6 -54,-14 -72,-23 -18,-9 -31,-20 -39,-32 -9,-13 -13,-27 -13,-44 0,-29 12,-53 36,-72 24,-20 55,-29 92,-29 39,0 72,10 96,30 25,21 37,46 37,78l-60 0c0,-16 -7,-30 -21,-42 -14,-12 -31,-18 -52,-18 -22,0 -38,5 -51,14 -12,9 -18,22 -18,37 0,14 6,25 17,32 12,7 32,14 62,21 30,7 54,14 72,24 18,9 32,21 41,33 9,13 13,29 13,47 0,31 -13,56 -37,75 -25,19 -57,28 -97,28 -28,0 -52,-5 -74,-15 -21,-10 -38,-24 -50,-41 -12,-18 -18,-37 -18,-57l59 0c1,20 9,36 24,47 15,12 35,17 59,17 22,0 41,-4 54,-13 13,-9 21,-21 21,-37l0 0z"/>
  <path class="fil2 str0" d="M489 495l-102 0 -40 -107 -188 0 -39 107 -100 0 182 -468 100 0 187 468zm-173 -186l-65 -173 -63 173 128 0zm417 14l0 -79 203 0 0 187c-20,19 -48,36 -86,51 -37,15 -75,22 -114,22 -49,0 -92,-10 -128,-31 -36,-21 -64,-50 -82,-88 -18,-38 -27,-80 -27,-125 0,-49 10,-92 31,-130 20,-38 50,-67 90,-87 30,-16 67,-23 112,-23 58,0 103,12 136,37 33,25 54,58 63,101l-94 18c-7,-23 -19,-41 -37,-55 -18,-13 -41,-20 -68,-20 -41,0 -74,13 -98,39 -24,26 -36,65 -36,117 0,56 12,97 37,125 25,28 57,42 97,42 20,0 40,-4 59,-12 20,-8 37,-17 51,-28l0 -59 -108 0z"/>
 </g>
</svg>
